<svg id="Capa_1" enable-background="new 0 0 512 512" height="512" viewBox="0 0 512 512" width="512" xmlns="http://www.w3.org/2000/svg"><g><g><path d="m306 127.5v30h70c0-.588 0-30.199 0-30 0-19.33-15.67-35-35-35-19.315 0-35 15.655-35 35z" fill="#f26376"/></g><g><path d="m376 127.5v30h-35v-65c19.33 0 35 15.67 35 35z" fill="#db375a"/></g><path d="m341 0c-8.284 0-15 6.716-15 15v31c0 8.284 6.716 15 15 15s15-6.716 15-15v-31c0-8.284-6.716-15-15-15z" fill="#f26376"/><path d="m356 15v31c0 8.28-6.72 15-15 15v-61c8.28 0 15 6.72 15 15z" fill="#db375a"/><path d="m272.26 31.047c-5.856-5.858-15.354-5.857-21.213 0-5.858 5.858-5.858 15.355 0 21.213l21.92 21.92c5.857 5.858 15.354 5.858 21.213 0 5.858-5.858 5.858-15.355 0-21.213z" fill="#f26376"/><path d="m430.953 31.046c-5.857-5.857-15.355-5.858-21.213 0l-21.92 21.92c-5.858 5.858-5.858 15.355 0 21.213 5.857 5.857 15.355 5.858 21.213 0l21.92-21.92c5.859-5.857 5.859-15.355 0-21.213z" fill="#db375a"/><path d="m511 317.5v150c0 8.28-6.72 15-15 15h-480c-8.28 0-15-6.72-15-15v-250c0-35.84 29.16-65 65-65h326.8c4.94 0 9.56 2.43 12.36 6.5 45.402 65.988 24.054 34.959 103.2 150 1.72 2.5 2.64 5.46 2.64 8.5z" fill="#e4edef"/><path d="m1 392.5h510v30h-510z" fill="#f26376"/><path d="m511 317.5v150c0 8.28-6.72 15-15 15h-155v-330h51.8c4.94 0 9.56 2.43 12.36 6.5 45.402 65.988 24.054 34.959 103.2 150 1.72 2.5 2.64 5.46 2.64 8.5z" fill="#bfdfe7"/><path d="m511 317.5v15h-184c-8.28 0-15-6.72-15-15v-90c0-8.28 6.72-15 15-15h114.97l66.39 96.5c1.72 2.5 2.64 5.46 2.64 8.5z" fill="#63c6f8"/><path d="m511 317.5v15h-170v-120h100.97l66.39 96.5c1.72 2.5 2.64 5.46 2.64 8.5z" fill="#23a5f6"/><path d="m266 212.5h-40c-8.284 0-15 6.716-15 15v90c0 8.284 6.716 15 15 15h40c8.284 0 15-6.716 15-15v-90c0-8.284-6.716-15-15-15z" fill="#63c6f8"/><path d="m151 258.5h-14v-16c0-8.284-6.716-15-15-15s-15 6.716-15 15v16h-16c-8.284 0-15 6.716-15 15s6.716 15 15 15h16v13.999c0 8.284 6.716 15 15 15s15-6.716 15-15v-13.999h14c8.284 0 15-6.716 15-15s-6.716-15-15-15z" fill="#f26376"/><path d="m341 392.5h170v30h-170z" fill="#db375a"/><circle cx="129" cy="444.5" fill="#00607f" r="67"/><path d="m196 444.5c0 38.371-32.302 68.073-68 66.99v-133.98c35.555-1.078 68 28.478 68 66.99z" fill="#00465f"/><circle cx="129" cy="444.5" fill="#027893" r="37"/><path d="m166 444.5c0 20.897-17.397 37.615-38 36.99v-73.98c20.566-.624 38 16.058 38 36.99z" fill="#00607f"/><circle cx="368.5" cy="444.75" fill="#00607f" r="67.25"/><path d="m435.75 444.75c0 37.08-30.17 67.25-67.25 67.25-.17 0-.33 0-.5-.01v-134.48c.17-.01.33-.01.5-.01 37.08 0 67.25 30.17 67.25 67.25z" fill="#00465f"/><circle cx="368.5" cy="444.75" fill="#027893" r="37.25"/><path d="m405.75 444.75c0 20.54-16.71 37.25-37.25 37.25-.17 0-.33 0-.5-.01v-74.48c.17-.01.33-.01.5-.01 20.54 0 37.25 16.71 37.25 37.25z" fill="#00607f"/></g></svg>