<svg id="Capa_1" enable-background="new 0 0 511.334 511.334" height="512" viewBox="0 0 511.334 511.334" width="512" xmlns="http://www.w3.org/2000/svg"><g><g><path d="m388.497 503.834h-265.661v-141.102c0-21.718 17.606-39.324 39.324-39.324h187.014c21.718 0 39.324 17.606 39.324 39.324v141.102z" fill="#deecf1"/><path d="m349.174 323.409h-42.52c21.718 0 39.324 17.606 39.324 39.324v141.102h42.52v-141.103c-.001-21.717-17.606-39.323-39.324-39.323z" fill="#a8d3d8"/><path d="m219.198 268.088v36.844l36.469 57.883 36.468-57.883v-36.844z" fill="#ffcebf"/><path d="m219.198 304.932-35.804 18.476 36.58 69.336c1.277 2.421 4.554 2.873 6.439.887l29.254-30.817z" fill="#cbe5e8"/><path d="m280.573 389.052-24.906-26.237-24.906 26.237 12.318 36.635h25.175z" fill="#017bae"/><path d="m243.079 425.687-12.318 78.147h49.812l-12.319-78.147z" fill="#017bae"/><path d="m325.232 328.541 2.707-5.132-35.804-18.477-36.468 57.883 21.461 22.609z" fill="#cbe5e8"/><path d="m210.217 503.834 150.986-178.544c-3.792-1.218-7.833-1.882-12.029-1.882h-19.602l-152.578 180.426z" fill="#444"/><path d="m219.198 301.6c11.186 4.821 23.514 7.496 36.469 7.496 12.955 0 25.282-2.676 36.468-7.496v-33.512h-72.937z" fill="#ffb09e"/><path d="m292.135 304.932-4.868 7.727 20.83 10.749c-3.61 6.842 2.35-.849-41.463 50.96l10.494 11.055 48.104-56.883 2.707-5.132z" fill="#a8d3d8"/><path d="m147.306 108.65h216.722v79.091h-216.722z" fill="#384949"/><path d="m346.637 149.753c-7.299-43.643-45.24-76.919-90.97-76.919-45.723 0-83.67 33.269-90.97 76.919-17.993-.716-32.598 13.673-32.598 31.291 0 17.647 14.635 32.006 32.598 31.291 7.3 43.65 45.247 76.919 90.97 76.919 45.723 0 83.67-33.269 90.97-76.919 17.993.716 32.598-13.673 32.598-31.291 0-17.652-14.639-32.006-32.598-31.291z" fill="#ffcebf"/><path d="m137.071 52.583c-11.653 4.774-15.942 19.073-8.842 29.472l22.957 33.622 104.481-15.427 104.481 15.427 22.957-33.622c7.101-10.4 2.811-24.699-8.842-29.472l-102.135-41.841c-10.549-4.321-22.374-4.321-32.922 0z" fill="#017297"/><path d="m147.306 109.976v26.614c24.504-21.753 63.949-35.896 108.361-35.896s83.857 14.144 108.361 35.896v-26.614c-53.939-47.883-162.866-47.81-216.722 0z" fill="#fec165"/><path d="m137.071 52.583c-11.653 4.774-15.942 19.073-8.842 29.472l22.957 33.622 104.481-15.427 104.481 15.427 22.957-33.622c7.101-10.4 2.811-24.699-8.842-29.472l-102.135-41.841c-10.549-4.321-22.374-4.321-32.922 0z" fill="#08a9f1"/><g><path d="m374.263 52.583-102.135-41.841c-9.793-4.012-20.684-4.293-30.634-.856 1.84.636-6.37-2.691 104.423 42.698 11.653 4.774 15.942 19.073 8.842 29.472l-20.361 29.82 25.75 3.802 22.957-33.622c7.1-10.4 2.811-24.699-8.842-29.473z" fill="#0290cf"/></g><path d="m361.961 133.267h-1.044c0-22.469.025-18.591-.083-22.648l-105.133-12.952-105.66 11.667v21.625l-2.736 5.631v.335c14.575 17.065 36.185 27.47 59.587 27.47h97.547c22.924 0 44.699-10.038 59.587-27.47v-.335z" fill="#0290cf"/><path d="m361.75 113.858-26.069-3.239v26.306c-14.888 17.432-36.663 27.47-59.587 27.47h28.346c22.924 0 44.699-10.038 59.587-27.47l-2.277-4.389z" fill="#017bae"/><g><path d="m147.306 109.976v26.614c24.504-21.753 63.949-35.896 108.361-35.896s83.857 14.144 108.361 35.896v-26.614c-53.939-47.883-162.866-47.81-216.722 0z" fill="#fec165"/><g><path d="m241.494 74.574c38.565 2.653 72.326 15.994 94.188 35.402v8.021c10.8 5.243 20.369 11.512 28.346 18.593v-26.614c-31.19-27.688-79.559-38.358-122.534-35.402z" fill="#fdb441"/></g><circle cx="255.701" cy="86.247" fill="#fedba6" r="25.263"/></g><g><g><path d="m210.641 210.639c-4.142 0-7.5-3.357-7.5-7.5v-14.136c0-4.143 3.358-7.5 7.5-7.5s7.5 3.357 7.5 7.5v14.136c0 4.142-3.358 7.5-7.5 7.5z" fill="#384949"/></g><g><path d="m300.693 210.639c-4.142 0-7.5-3.357-7.5-7.5v-14.136c0-4.143 3.358-7.5 7.5-7.5s7.5 3.357 7.5 7.5v14.136c0 4.142-3.358 7.5-7.5 7.5z" fill="#384949"/></g></g><g><path d="m255.667 254.993c-14.938 0-27.09-12.152-27.09-27.09 0-4.143 3.358-7.5 7.5-7.5s7.5 3.357 7.5 7.5c0 6.666 5.424 12.09 12.09 12.09s12.09-5.424 12.09-12.09c0-4.143 3.358-7.5 7.5-7.5s7.5 3.357 7.5 7.5c0 14.938-12.153 27.09-27.09 27.09z" fill="#384949"/></g></g><g><path d="m210.641 181.503c-4.142 0-7.5 3.357-7.5 7.5v14.136c0 4.143 3.358 7.5 7.5 7.5s7.5-3.357 7.5-7.5v-14.136c0-4.143-3.358-7.5-7.5-7.5z"/><path d="m300.692 210.639c4.143 0 7.5-3.357 7.5-7.5v-14.136c0-4.143-3.357-7.5-7.5-7.5s-7.5 3.357-7.5 7.5v14.136c0 4.142 3.358 7.5 7.5 7.5z"/><path d="m255.667 254.993c14.937 0 27.091-12.152 27.091-27.09 0-4.143-3.357-7.5-7.5-7.5s-7.5 3.357-7.5 7.5c0 6.666-5.424 12.09-12.091 12.09s-12.09-5.424-12.09-12.09c0-4.143-3.358-7.5-7.5-7.5s-7.5 3.357-7.5 7.5c-.001 14.938 12.152 27.09 27.09 27.09z"/><path d="m388.498 398.442c4.143 0 7.5-3.357 7.5-7.5v-28.21c0-20.426-13.062-38.342-32.501-44.583-.002-.001-.003-.001-.005-.001-4.629-1.486-9.447-2.24-14.318-2.24h-19.413l-30.125-15.545v-13.847c7.427-3.647 14.428-8.207 20.798-13.652 16.263-13.9 27.623-32.653 32.409-53.309 19.088-2.43 33.893-18.774 33.893-38.512 0-14.998-8.626-28.162-21.279-34.608 1.474-1.49 2.903-3.033 4.275-4.64 1.16-1.358 1.797-3.085 1.797-4.871v-.335-24.278l17.77-26.027c3.114-4.561 4.761-9.869 4.761-15.354 0-11.144-6.654-21.07-16.953-25.289l-102.136-41.839c-6.157-2.523-12.652-3.802-19.304-3.802-6.655 0-13.15 1.279-19.304 3.802l-30.407 12.457c-3.833 1.57-5.667 5.95-4.097 9.783 1.571 3.834 5.951 5.667 9.784 4.098l30.409-12.458c4.341-1.779 8.922-2.682 13.616-2.682 4.692 0 9.273.902 13.618 2.683l102.134 41.84c4.641 1.9 7.639 6.379 7.639 11.408 0 2.453-.742 4.837-2.148 6.895l-14.441 21.152c-22.348-17.131-51.159-26.918-79.314-30.61-5.993-9.159-16.355-14.885-27.453-14.885-11.092 0-21.452 5.721-27.446 14.874-.154.02-.305.046-.459.067-27.991 3.719-56.461 13.392-78.799 30.458-.043.033-.089.064-.132.097l-14.442-21.152c-1.405-2.057-2.147-4.44-2.147-6.895 0-5.029 2.998-9.508 7.638-11.408l39.34-16.116c3.833-1.57 5.667-5.95 4.097-9.783-1.57-3.834-5.949-5.667-9.784-4.098l-39.34 16.116c-10.298 4.219-16.952 14.146-16.952 25.289 0 5.485 1.646 10.794 4.76 15.354l17.771 26.026v24.278.335c0 1.786.637 3.513 1.797 4.871 1.372 1.607 2.801 3.15 4.275 4.64-12.653 6.446-21.279 19.61-21.279 34.608 0 19.737 14.805 36.082 33.893 38.512 4.786 20.655 16.145 39.408 32.408 53.309 6.37 5.445 13.372 10.005 20.798 13.652v13.847l-30.123 15.545h-19.417c-25.819 0-46.824 21.005-46.824 46.824v141.102c0 4.143 3.358 7.5 7.5 7.5h265.662c4.143 0 7.5-3.357 7.5-7.5v-77.892c0-4.143-3.357-7.5-7.5-7.5s-7.5 3.357-7.5 7.5v70.392h-94.015l-9.522-60.402 85.971-101.661c10.675 5.322 17.565 16.229 17.565 28.462v28.21c.001 4.141 3.358 7.498 7.501 7.498zm-71.229-72.1c-4.469 5.285-36.104 42.693-40.463 47.848l-11.686-12.31 29.692-47.126zm-50.207 59.371-21.115 24.969-6.638-19.741 16.358-17.232zm-37.637-78.618-2.727-4.329v-10.286c9.351 2.841 19.359 4.273 28.969 4.273 9.666 0 19.667-1.447 28.969-4.273v10.286l-2.727 4.329-26.242 41.65zm58.985-222.755c24.502 4.167 49.15 13.361 68.118 29.12v7.845c-18.985-12.881-42.908-21.786-69.392-25.771 1.059-3.594 1.49-7.366 1.274-11.194zm-48.741-5.752c2.94-6.138 9.233-10.105 16.032-10.105 6.802 0 13.096 3.969 16.035 10.11 0 0 0 .001.001.001v.001c1.146 2.396 1.728 4.97 1.728 7.651 0 3.959-1.278 7.708-3.697 10.841-.124.16-.226.332-.335.5-.156.147-.313.293-.457.455-3.372 3.792-8.211 5.967-13.274 5.967-5.066 0-9.906-2.177-13.28-5.973-.142-.16-.298-.304-.452-.45-.11-.169-.213-.342-.337-.504-2.417-3.131-3.694-6.878-3.694-10.836-.001-2.682.582-5.26 1.73-7.658zm-5.527 32.321c5.938 5.188 13.597 8.101 21.56 8.101 7.959 0 15.614-2.909 21.55-8.093l25.975 3.228c19.221 5.007 36.507 13.006 50.006 23.279-2.394 2.275-4.934 4.364-7.594 6.266-.002.002-.005.003-.007.005-11.799 8.427-26.131 13.2-41.191 13.2-107.021 0-104.62.925-117.55-2.874-.013-.004-.025-.008-.038-.011-7.573-2.23-14.767-5.756-21.15-10.315-.003-.002-.006-.004-.009-.006-2.659-1.902-5.199-3.99-7.592-6.265 13.501-10.275 30.787-18.274 50.012-23.28zm-79.336 2.55c19.016-15.8 43.781-24.993 68.188-29.131-.213 3.711.184 7.508 1.271 11.197-26.514 3.979-50.456 12.887-69.458 25.779v-7.845zm17.288 97.639c-.606-3.626-3.746-6.263-7.394-6.263-.099 0-.198.002-.298.006-.326.013-.652.026-.981.026-13.136 0-23.823-10.688-23.823-23.823 0-11.68 8.518-21.555 19.799-23.477 13.635 9.059 30.059 14.327 47.495 14.327h97.547c16.622 0 33.186-4.819 47.495-14.327 11.281 1.921 19.8 11.796 19.8 23.477 0 13.136-10.688 23.823-23.823 23.823-.329 0-.655-.014-.98-.026-3.761-.162-7.068 2.532-7.691 6.257-6.958 41.598-42.784 70.656-83.573 70.656-40.91 0-76.631-29.145-83.573-70.656zm44.427 103.656 6.96 11.047 22.732 36.08-21.882 23.051-30.772-58.328zm-43.007 181.58h-43.178v-133.602c0-17.548 14.276-31.824 31.824-31.824h16.711l34.47 65.337c2.551 4.835 8.307 7.357 13.788 5.538l7.495 22.289c-7.414 8.766-54.664 64.64-61.11 72.262zm66.021 0 3.014-19.119 22.113-26.149 7.136 45.267h-32.263zm-32.798 0h-13.578c1.185-1.402 138.652-163.958 139.893-165.426h13.578z"/></g></g></svg>