<?xml version="1.0" encoding="iso-8859-1"?>
<!-- Generator: Adobe Illustrator 21.0.0, SVG Export Plug-In . SVG Version: 6.00 Build 0)  -->
<svg xmlns="http://www.w3.org/2000/svg" xmlns:xlink="http://www.w3.org/1999/xlink" version="1.1" id="Capa_1" x="0px" y="0px" viewBox="0 0 512 512" style="enable-background:new 0 0 512 512;" xml:space="preserve" width="512" height="512">
<g>
	<rect x="30.97" y="178.4" style="fill:#C8C6CD;" width="450.06" height="333.6"/>
	<rect x="256.02" y="178.4" style="fill:#AEADB3;" width="225.01" height="333.6"/>
	<rect x="98.5" y="244.16" style="fill:#60DD4E;" width="315" height="200.04"/>
	<rect x="256.02" y="244.16" style="fill:#00C800;" width="157.48" height="200.04"/>
	<polygon style="fill:#FF8900;" points="413.5,297.38 413.5,444.2 265.84,444.2 243,412.52  "/>
	<polygon style="fill:#E1E1E3;" points="265.7,410.7 281.83,434.09 257.13,451.12 256.02,449.51 122.84,256.3 147.54,239.28    248.67,385.99 256.02,381.22 402.84,285.99 419.16,311.16  "/>
	<polygon style="fill:#D9D9DB;" points="265.7,410.7 281.83,434.09 257.13,451.12 256.02,449.51 256.02,381.22 402.84,285.99    419.16,311.16  "/>
	<path style="fill:#78777F;" d="M83.5,229.16V459.2h345V229.16H83.5z M398.5,429.2h-285V259.16h285V429.2z"/>
	<path style="fill:#FF633E;" d="M374,118c0,29.4-18.18,71.36-54.05,124.71c-25.92,38.55-51.44,68.73-52.51,69.99l-11.42,13.47   l-0.02,0.02l-11.44-13.49c-1.07-1.26-26.59-31.44-52.51-69.99C156.18,189.36,138,147.4,138,118C138,52.94,190.93,0,256,0   c0.01,0,0.01,0,0.02,0C321.08,0.01,374,52.95,374,118z"/>
	<path style="fill:#FFC473;" d="M315.63,115.47c0,32.87-26.74,59.62-59.61,59.63c-0.01,0-0.01,0-0.02,0   c-32.88,0-59.63-26.75-59.63-59.63S223.12,55.85,256,55.85c0.01,0,0.01,0,0.02,0C288.89,55.86,315.63,82.6,315.63,115.47z"/>
	<polygon style="fill:#57555C;" points="428.5,229.16 428.5,459.2 256.02,459.2 256.02,429.2 398.5,429.2 398.5,259.16    256.02,259.16 256.02,229.16  "/>
	<path style="fill:#E70020;" d="M374,118c0,29.4-18.18,71.36-54.05,124.71c-25.92,38.55-51.44,68.73-52.51,69.99l-11.42,13.47V0   C321.08,0.01,374,52.95,374,118z"/>
	<path style="fill:#FFAA20;" d="M256.02,175.1V55.85c32.87,0.01,59.61,26.75,59.61,59.62S288.89,175.09,256.02,175.1z"/>
</g>















</svg>
