<svg id="Layer_1" enable-background="new 0 0 256 256" height="512" viewBox="0 0 256 256" width="512" xmlns="http://www.w3.org/2000/svg"><g><path d="m251.1 62h-8.5c-1.1 0-2-.7-2.3-1.8-1.1-4-2.7-7.9-4.8-11.5-.5-.9-.4-2.1.4-2.8l6-6c.9-.9.9-2.4 0-3.4l-12.4-12.5c-.9-.9-2.4-.9-3.4 0l-6 6c-.7.8-1.9.9-2.8.4-3.6-2.1-7.5-3.7-11.5-4.8-1-.3-1.8-1.3-1.8-2.3v-8.5c0-1.3-1.1-2.4-2.4-2.4h-17.5c-1.3 0-2.4 1.1-2.4 2.4v8.5c0 1.1-.7 2-1.8 2.3-4 1.1-7.9 2.7-11.5 4.8-.9.5-2.1.4-2.8-.4l-6-6c-.9-.9-2.4-.9-3.4 0l-12.4 12.4c-.9.9-.9 2.4 0 3.4l6 6c.8.7.9 1.9.4 2.8-2.1 3.6-3.7 7.5-4.8 11.5-.3 1-1.3 1.8-2.3 1.8h-8.5c-1.3 0-2.4 1.1-2.4 2.4v17.5c0 1.3 1.1 2 2.4 2h8.5c1.2.2 2.1 1 2.3 2.1 1.1 4 2.7 7.9 4.8 11.5.5.9.4 2.1-.4 2.8l-6 6c-.9.9-.9 2.4 0 3.4l12.4 12.4c.9.9 2.4.9 3.4 0l6-6c.7-.8 1.9-.9 2.8-.4 3.6 2.1 7.5 3.7 11.5 4.8 1 .3 1.8 1.3 1.8 2.3v8.5c0 1.3 1.1 2.4 2.4 2.4h17.5c1.3 0 2.4-1.1 2.4-2.4v-8.5c0-1.1.7-2 1.8-2.3 4-1.1 7.9-2.7 11.5-4.8.9-.5 2.1-.4 2.8.4l6 6c.9.9 2.4.9 3.4 0l12.4-12.4c.9-.9.9-2.4 0-3.4l-6-6c-.8-.7-.9-1.9-.4-2.8 2.1-3.6 3.7-7.5 4.8-11.5.3-1.1 1.2-2 2.3-2.1h8.5c1.3 0 2.4-.7 2.4-2v-17.5c0-1.3-1.1-2.3-2.4-2.3z" fill="#fcdd86"/><circle cx="192.9" cy="73.1" fill="#f5c84c" r="32.7"/><path d="m185.8 86.1-9.8-9.8c-2.2-2.2-2.2-5.7 0-7.8 2.2-2.2 5.7-2.2 7.8 0l5.9 5.9 12.5-12.5c2.2-2.1 5.7-2.1 7.8.1 2.1 2.1 2.1 5.6 0 7.7l-16.4 16.4c-2.1 2.1-5.6 2.1-7.8 0z" fill="#edf4fc"/><path d="m150.2 97.6c-2.1-3.6-3.7-7.5-4.8-11.5-.3-1.1-1.2-2-2.3-2.1h-8.5c-1.3 0-2.4-.7-2.4-2v-10h-123.6c-3.3 0-6.1 2.7-6.1 6.1v108.4c0 3.3 2.7 6.1 6.1 6.1h20.3v-88.1c0-3.3 2.7-6.1 6.1-6.1h115.5c-.1-.3-.2-.6-.3-.8z" fill="#87d147"/><path d="m150.2 97.6c-2.1-3.6-3.7-7.5-4.8-11.5-.3-1.1-1.2-2-2.3-2.1h-103.7c-1.1 0-2.1.7-2.4 1.8-3 10-10.8 17.8-20.8 20.8-1.1.3-1.8 1.3-1.8 2.4v46.7c0 1.1.7 2.1 1.8 2.4 4.8 1.4 9.1 4 12.7 7.5v-61.1c0-3.3 2.7-6.1 6.1-6.1h115.5c-.1-.3-.2-.6-.3-.8z" fill="#b2e26d"/><path d="m28.9 195h-20.3c-4.7 0-8.6-3.8-8.6-8.6v-108.4c0-4.7 3.8-8.6 8.6-8.6h123.6c1.4 0 2.5 1.1 2.5 2.5v9.4h8.4c2.3.1 4.2 1.8 4.8 4 1 3.8 2.6 7.5 4.5 10.9.3.5.5 1.1.6 1.7.2 1.4-.8 2.6-2.1 2.8-.1 0-.2 0-.4 0h-115.5c-2 0-3.6 1.6-3.6 3.6v88.1c0 1.5-1.1 2.6-2.5 2.6zm-20.3-120.5c-2 0-3.6 1.6-3.6 3.6v108.4c0 2 1.6 3.6 3.6 3.6h17.8v-85.6c0-4.7 3.8-8.6 8.6-8.6h111.5c-1.4-2.9-2.6-6-3.5-9.2 0-.1-.1-.2-.2-.3h-8.2c-2.8 0-4.9-1.9-4.9-4.5v-7.4z"/><path d="m178.7 235.5h-2.1v-2.1c0-1.5-1.3-2.8-2.8-2.8s-2.8 1.3-2.8 2.8v2.1h-2.1c-1.5 0-2.8 1.3-2.8 2.8s1.3 2.8 2.8 2.8h2.1v2.1c0 1.5 1.3 2.8 2.8 2.8s2.8-1.3 2.8-2.8v-2.1h2.1c1.5 0 2.8-1.3 2.8-2.8s-1.3-2.8-2.8-2.8z" fill="#70d6f9"/><path d="m120.8 40.6c-4-.7-7.1-3.8-7.9-7.7 0-.1-.1-.2-.2-.1-.1 0-.1.1-.1.1-.8 4-3.9 7-7.9 7.7-.1 0-.2.1-.2.2s.1.1.2.2c4 .7 7.1 3.8 7.9 7.7 0 .1.1.2.2.1.1 0 .1-.1.1-.1.8-4 3.9-7 7.9-7.7.1 0 .2-.1.2-.2 0-.2-.1-.2-.2-.2z" fill="#f5c84c"/><circle cx="130" cy="22.7" fill="#fc657e" r="3"/><circle cx="41" cy="55.7" fill="#87d147" r="3"/><circle cx="149" cy="230.7" fill="#f5c84c" r="3"/><path d="m28.9 168c-.7 0-1.3-.3-1.7-.7-3.3-3.2-7.3-5.6-11.7-6.9-2.1-.6-3.6-2.6-3.6-4.8v-46.7c0-2.2 1.4-4.2 3.6-4.8 9.2-2.7 16.4-9.9 19.1-19.1.6-2.1 2.6-3.6 4.8-3.6h103.7c2.3.1 4.2 1.8 4.8 4 1 3.8 2.6 7.5 4.5 10.9.3.5.5 1.1.6 1.7.2 1.4-.8 2.6-2.1 2.8-.1 0-.2 0-.4 0h-115.5c-2 0-3.6 1.6-3.6 3.6v61.1c0 1.4-1.1 2.5-2.5 2.5zm-2.5-63.7c-2.9 2-6.1 3.5-9.5 4.6v46.8c3.4 1 6.6 2.6 9.5 4.6v-55.8c0-.1 0-.2 0-.2zm13-17.9c-1 3.4-2.6 6.6-4.6 9.5h111.6c-1.4-2.9-2.6-6-3.5-9.2 0-.1-.1-.2-.2-.3z"/><path d="m229.5 122.2c-.9.9-2.4.9-3.4 0l-6-6c-.7-.8-1.9-.9-2.8-.4-3.6 2.1-7.5 3.7-11.5 4.8-1 .3-1.8 1.3-1.8 2.3v8.5c0 1.3-1.1 2.4-2.4 2.4h-17.5c-1.3 0-2.4-1.1-2.4-2.4v-8.5c0-1.1-.7-2-1.8-2.3-4-1.1-7.9-2.7-11.5-4.8-.9-.5-2.1-.4-2.8.4l-6 6c-.9.9-2.4.9-3.4 0l-12.4-12.4c-.9-.9-.9-2.4 0-3.4l6-6c.5-.5.8-1.3.7-2h-115.5c-3.3 0-6.1 2.7-6.1 6.1v108.4c0 3.3 2.7 6.1 6.1 6.1h189.6c3.3 0 6.1-2.7 6.1-6.1v-91.8z" fill="#87d147"/><path d="m216.9 132.9c-4.9-1.5-9.3-4.1-12.9-7.7v6.2c0 1.3-1.1 2.4-2.4 2.4h-17.6c-1.3 0-2.4-1.1-2.4-2.4v-8.5c0-1.1-.7-2-1.8-2.3-4-1.1-7.9-2.7-11.5-4.8-.9-.5-2.1-.4-2.8.4l-6 6c-.9.9-2.4.9-3.4 0l-11.9-11.9h-78.4c-1.1 0-2.1.7-2.4 1.8-3 10-10.8 17.8-20.8 20.8-1.1.3-1.8 1.3-1.8 2.4v46.7c0 1.1.7 2.1 1.8 2.4 10 3 17.8 10.8 20.8 20.8.3 1.1 1.3 1.8 2.4 1.8h127.9c1.1 0 2.1-.7 2.4-1.8 3-10 10.8-17.8 20.8-20.8 1.1-.3 1.8-1.3 1.8-2.4v-46.7c0-1.1-.7-2.1-1.8-2.4z" fill="#b2e26d"/><circle cx="129.8" cy="158.6" fill="#87d147" r="34"/><path d="m133.9 176.2h-13.3c-1.4 0-2.5-1.1-2.5-2.5s1.1-2.5 2.5-2.5h13.3c2.8 0 5-2.2 5-5s-2.2-5-5-5h-8.3c-5.5 0-10-4.5-10-10s4.5-10 10-10h11.8c1.4 0 2.5 1.1 2.5 2.5s-1.1 2.5-2.5 2.5h-11.8c-2.8 0-5 2.2-5 5s2.2 5 5 5h8.3c5.5 0 10 4.5 10 10s-4.4 10-10 10z"/><path d="m129.8 181.3c-1.4 0-2.5-1.1-2.5-2.5v-40.3c0-1.4 1.1-2.5 2.5-2.5s2.5 1.1 2.5 2.5v40.3c0 1.4-1.1 2.5-2.5 2.5z"/><path d="m224.6 221.4h-189.6c-4.7 0-8.6-3.8-8.6-8.6v-108.4c0-4.7 3.8-8.6 8.6-8.6h115.5c1.2 0 2.3.9 2.5 2.1.2 1.5-.3 3.1-1.4 4.1l-5.9 5.9 12.2 12.2 5.9-5.9c1.5-1.6 3.9-1.9 5.9-.8 3.4 2 7.1 3.5 10.9 4.5 2.1.6 3.6 2.5 3.6 4.8v8.4h17.3v-8.4c0-2.2 1.5-4.2 3.6-4.8 3.8-1 7.5-2.6 10.9-4.5 1.9-1.1 4.3-.8 5.9.8l5.9 5.9 1-1c1-1 2.6-1 3.5 0 .5.5.7 1.1.7 1.8v91.8c.1 4.9-3.7 8.7-8.4 8.7zm-189.6-120.5c-2 0-3.6 1.6-3.6 3.6v108.4c0 2 1.6 3.6 3.6 3.6h189.6c2 0 3.6-1.6 3.6-3.6v-87.5c-1.4.1-2.8-.4-3.7-1.4l-6-6c-3.7 2.1-7.8 3.8-11.9 4.9v8.4c0 2.7-2.2 4.9-4.9 4.9h-17.5c-2.7 0-4.9-2.2-4.9-4.9v-8.4c-4.2-1.1-8.2-2.8-11.9-4.9l-6 6c-1.9 1.9-5 1.9-6.9 0l-12.5-12.4c-1.9-1.9-1.9-5 0-6.9l3.8-3.8z"/><path d="m77.3 161.1h-7.2c-1.4 0-2.5-1.1-2.5-2.5s1.1-2.5 2.5-2.5h7.2c1.4 0 2.5 1.1 2.5 2.5s-1.2 2.5-2.5 2.5z"/><path d="m189.5 161.1h-7.2c-1.4 0-2.5-1.1-2.5-2.5s1.1-2.5 2.5-2.5h7.2c1.4 0 2.5 1.1 2.5 2.5s-1.2 2.5-2.5 2.5z"/><path d="m193.7 209.5h-127.9c-2.2 0-4.2-1.5-4.8-3.6-2.7-9.2-9.9-16.4-19.1-19.1-2.1-.6-3.6-2.6-3.6-4.8v-46.7c0-2.2 1.4-4.2 3.6-4.8 9.2-2.7 16.4-9.9 19.1-19.1.6-2.1 2.6-3.6 4.8-3.6h78.5c.7 0 1.3.3 1.8.7l11.8 11.8 5.9-5.9c1.5-1.6 3.9-1.9 5.9-.8 3.4 2 7.1 3.5 10.9 4.5 2.1.6 3.6 2.5 3.6 4.8v8.4h17.3v-6.1c0-1.4 1.1-2.5 2.5-2.5.7 0 1.3.3 1.8.7 3.3 3.3 7.4 5.7 11.9 7.1 2.1.6 3.6 2.6 3.6 4.8v46.7c0 2.2-1.5 4.2-3.6 4.8-9.2 2.7-16.4 9.9-19.1 19.1-.7 2.1-2.7 3.6-4.9 3.6zm-127.9-96.7c-3.2 10.8-11.7 19.2-22.5 22.4v46.8c10.8 3.2 19.2 11.7 22.4 22.5h127.9c3.2-10.8 11.7-19.2 22.5-22.4v-46.8c-3.5-1-6.7-2.6-9.7-4.7v.8c0 2.7-2.2 4.9-4.9 4.9h-17.5c-2.7 0-4.9-2.2-4.9-4.9v-8.4c-4.2-1.1-8.2-2.8-11.9-4.9l-6 6c-1.9 1.9-5 1.9-6.9 0l-11.2-11.2z"/><path d="m129.8 195.2c-20.2 0-36.5-16.3-36.5-36.5s16.3-36.5 36.5-36.5 36.5 16.3 36.5 36.5c0 20.1-16.4 36.4-36.5 36.5zm0-68.1c-17.4 0-31.5 14.1-31.5 31.5s14.1 31.5 31.5 31.5 31.5-14.1 31.5-31.5-14.1-31.5-31.5-31.5z"/><path d="m201.6 136.3h-17.5c-2.7 0-4.9-2.2-4.9-4.9v-8.4c-4.2-1.1-8.2-2.8-11.9-4.9l-6 6c-1.9 1.9-5 1.9-6.9 0l-12.4-12.5c-1.9-1.9-1.9-5 0-6.9l6-6c-2.2-3.8-3.8-7.8-5-12 0-.1-.1-.2-.2-.3h-8.2c-2.8 0-4.9-1.9-4.9-4.5v-17.6c0-2.7 2.2-4.9 4.9-4.9h8.4c1.1-4.2 2.8-8.2 4.9-11.9l-6-6c-1.9-1.9-1.9-5 0-6.9l12.4-12.4c1.9-1.9 5-1.9 6.9 0l6 6c3.7-2.1 7.8-3.8 11.9-4.9v-8.4c0-2.7 2.2-4.9 4.9-4.9h17.5c2.7 0 4.9 2.2 4.9 4.9v8.4c4.2 1.1 8.2 2.8 11.9 4.9l6-6c1.9-1.9 5-1.9 6.9 0l12.4 12.4c1.9 1.9 1.9 5 0 6.9l-6 6c2.1 3.7 3.8 7.8 4.9 11.9h8.4c2.7 0 4.9 2.2 4.9 4.9v17.5c0 2.6-2.1 4.5-4.9 4.5h-8.2c-.1.1-.1.2-.2.3-1.1 4.2-2.8 8.2-5 12l6 6c1.9 1.9 1.9 5 0 6.9l-12.2 12.5c-1.9 1.9-5 1.9-6.9 0l-6-6c-3.7 2.1-7.8 3.8-11.9 4.9v8.4c0 2.8-2.2 5-4.9 5zm-17.4-5h17.3v-8.4c0-2.2 1.5-4.2 3.6-4.8 3.8-1 7.5-2.6 10.9-4.5 1.9-1.1 4.3-.8 5.9.8l5.9 5.9 12.3-12.2-5.9-5.9c-1.6-1.5-1.9-3.9-.8-5.9 2-3.4 3.5-7.1 4.5-10.9.5-2.2 2.5-3.8 4.8-4h8.4v-16.9h-8.4c-2.2 0-4.2-1.5-4.8-3.6-1-3.8-2.6-7.5-4.5-10.9-1.1-1.9-.8-4.3.8-5.9l5.9-5.9-12.2-12.2-5.9 5.9c-1.5 1.6-3.9 1.9-5.9.8-3.4-2-7.1-3.5-10.9-4.5-2.1-.6-3.6-2.5-3.6-4.8v-8.4h-17.3v8.4c0 2.2-1.5 4.2-3.6 4.8-3.8 1-7.5 2.6-10.9 4.5-1.9 1.1-4.3.8-5.9-.8l-5.9-5.9-12.3 12.2 5.9 5.9c1.6 1.5 1.9 3.9.8 5.9-2 3.4-3.5 7.1-4.5 10.9-.6 2.1-2.5 3.6-4.8 3.6h-8.4v16.9h8.4c2.3.1 4.2 1.8 4.8 4 1 3.8 2.6 7.5 4.5 10.9 1.1 1.9.8 4.3-.8 5.9l-5.9 5.9 12.2 12.2 5.9-5.9c1.5-1.6 3.9-1.9 5.9-.8 3.4 2 7.1 3.5 10.9 4.5 2.1.6 3.6 2.5 3.6 4.8z"/><path d="m192.9 108.3c-19.4 0-35.2-15.7-35.2-35.2 0-19.4 15.7-35.2 35.2-35.2 19.4 0 35.2 15.7 35.2 35.2-.1 19.4-15.8 35.2-35.2 35.2zm0-65.4c-16.7 0-30.2 13.5-30.2 30.2s13.5 30.2 30.2 30.2 30.1-13.5 30.1-30.2c0-16.6-13.5-30.1-30.1-30.2z"/><path d="m189.7 90.2c-2.1 0-4.2-.8-5.7-2.3l-9.8-9.8c-3.2-3.1-3.2-8.2-.1-11.3 3.1-3.2 8.2-3.2 11.3-.1 0 0 .1.1.1.1l4.2 4.2 10.7-10.7c3.1-3.2 8.2-3.2 11.3-.1s3.2 8.2.1 11.3c0 0-.1.1-.1.1l-16.4 16.4c-1.4 1.4-3.4 2.2-5.6 2.2zm-2.1-5.9c.6.6 1.3.9 2.1.9.8 0 1.6-.3 2.1-.9l16.4-16.4c1.2-1.2 1.2-3.1 0-4.3-1.2-1.1-3.1-1.1-4.3 0l-12.5 12.5c-1 1-2.6 1-3.5 0l-5.9-5.9c-1.2-1.1-3.1-1.1-4.3 0-1.2 1.2-1.2 3.1 0 4.3z"/></g></svg>