<svg id="Capa_1" enable-background="new 0 0 512 512" height="512" viewBox="0 0 512 512" width="512" xmlns="http://www.w3.org/2000/svg"><g><path d="m452 437h30v45h-30z" fill="#76e2f8"/><path d="m467 437h15v45h-15z" fill="#00c0f1"/><path d="m0 30h392v482h-392z" fill="#53433f"/><path d="m196 30h196v482h-196z" fill="#3e322e"/><path d="m30 60h332v422h-332z" fill="#ede9e8"/><path d="m196 60h166v422h-166z" fill="#dfd7d5"/><path d="m60 422h272v30h-272z" fill="#d2c5c2"/><path d="m60 362h272v30h-272z" fill="#d2c5c2"/><path d="m452 30h30v45h-30z" fill="#76e2f8"/><path d="m106 0h180v60h-180z" fill="#ffd400"/><path d="m301 226c0 57.9-47.1 106-105 106s-105-48.1-105-106 47.1-105 105-105z" fill="#ff6c6c"/><path d="m196 0h90v60h-90z" fill="#ff9f00"/><path d="m196 332v-211l105 105c0 57.9-47.1 106-105 106z" fill="#ff4949"/><path d="m196 362h136v30h-136z" fill="#c4b3af"/><path d="m196 422h136v30h-136z" fill="#c4b3af"/><path d="m196 121v105h105c0-57.891-47.109-105-105-105z" fill="#00c0f1"/><path d="m512 151v262.301l-45 45-45-45v-262.301l45-30z" fill="#76e2f8"/><path d="m467 30h15v45h-15z" fill="#00c0f1"/><path d="m512 151v262.301l-45 45v-337.301z" fill="#00c0f1"/><path d="m422 60h90v91h-90z" fill="#725d57"/><path d="m467 60h45v91h-45z" fill="#3e322e"/></g></svg>