<?xml version="1.0" encoding="iso-8859-1"?>
<!-- Generator: Adobe Illustrator 22.0.0, SVG Export Plug-In . SVG Version: 6.00 Build 0)  -->
<svg xmlns="http://www.w3.org/2000/svg" xmlns:xlink="http://www.w3.org/1999/xlink" version="1.1" id="Capa_1" x="0px" y="0px" viewBox="0 0 512 512" style="enable-background:new 0 0 512 512;" xml:space="preserve" width="512" height="512">
<g>
	<path d="M256,0L128,256l128,256c141.385,0,256-114.615,256-256C512,114.615,397.385,0,256,0z"/>
	<path style="fill:#014859;" d="M0,256c0,141.385,114.615,256,256,256V0C114.615,0,0,114.615,0,256z"/>
	<path style="fill:#008BAA;" d="M452,256l-98-30l-98,30l69.296,138.593h69.296C430.062,359.124,452,310.124,452,256z"/>
	<path style="fill:#FFDE7A;" d="M60,256c0,54.124,21.938,103.124,57.407,138.593h69.296L256,256l-98-40L60,256z"/>
	<path style="fill:#FF0037;" d="M256,256h196c0-54.124-21.938-103.124-57.407-138.593h-69.296L256,256z"/>
	<path style="fill:#FF4437;" d="M256,256l138.593-138.593C359.124,81.938,310.124,60,256,60l-40,98L256,256z"/>
	<path style="fill:#AAEFFD;" d="M256,256l-60,98l60,98c54.124,0,103.124-21.938,138.593-57.407L256,256z"/>
	<path style="fill:#FFFFFF;" d="M117.407,394.593C152.876,430.062,201.876,452,256,452V256L117.407,394.593z"/>
	<path style="fill:#FFAB37;" d="M256,256l-69.296-138.593h-69.296C81.938,152.876,60,201.876,60,256H256z"/>
	<path style="fill:#FF8937;" d="M256,60c-54.124,0-103.124,21.938-138.593,57.407L256,256V60z"/>
	<path style="fill:#AAEFFD;" d="M256,150l-53,106l53,106c58.542,0,106-47.458,106-106C362,197.458,314.542,150,256,150z"/>
	<path style="fill:#FFFFFF;" d="M150,256c0,58.542,47.458,106,106,106V150C197.458,150,150,197.458,150,256z"/>
	<path style="fill:#014859;" d="M256,211l-10,45l10,133.52l42.37-118.348c1.746-4.875,2.63-9.979,2.63-15.172   C301,231.187,280.813,211,256,211z"/>
	<path style="fill:#016A82;" d="M211,256c0,5.193,0.885,10.299,2.631,15.171L256,389.52V211C231.187,211,211,231.187,211,256z"/>
</g>















</svg>
